<svg version="1.0" xmlns="http://www.w3.org/2000/svg" width="65.000000pt" height="66.000000pt" viewBox="0 0 65.000000 66.000000" preserveAspectRatio="xMidYMid meet"><g transform="translate(0.000000,66.000000) scale(0.100000,-0.100000)" fill="#030b1d" stroke="none"><path d="M257 640 c-94 -24 -173 -90 -216 -180 -36 -78 -36 -182 1 -261 104 -225 416 -251 551 -46 135 204 4 473 -239 492 -32 2 -76 0 -97 -5z m130 -151 c38 -14 83 -57 99 -96 57 -134 -84 -276 -219 -219 -106 44 -138 178 -64 263 51 58 118 77 184 52z"/><path fill="#ee1c47" d="M274 421 c-66 -40 -68 -125 -4 -169 27 -18 44 -23 73 -19 101 13 130 135 45 187 -41 25 -74 25 -114 1z"/></g></svg>